<svg viewBox="0 0 1201 657" xmlns="http://www.w3.org/2000/svg" xmlns:xlink="http://www.w3.org/1999/xlink">
<defs>
  <g id="t00007s">
  </g>
  <g id="t00007f">
    <polygon points="0,0 -1.5,-0.8660254037844386 -1,-1.7320508075688772 1,-1.7320508075688772 1.5,-0.8660254037844386 3,-1.7320508075688772 4.5,-0.8660254037844386 4,0 3,0 3,1.7320508075688772 1.5,2.598076211353316 1,1.7320508075688772 0,1.7320508075688772" stroke="rgb(0,0,0)" stroke-width="0.09999999999999998" fill="rgb(148,205,235)"/>
  </g>
  <g id="t00008s">
  </g>
  <g id="t00008f">
    <polygon points="0,0 -1.5,-0.8660254037844386 -1,-1.7320508075688772 1,-1.7320508075688772 1.5,-0.8660254037844386 3,-1.7320508075688772 4.5,-0.8660254037844386 4,0 3,0 3,1.7320508075688772 1.5,2.598076211353316 1,1.7320508075688772 0,1.7320508075688772" stroke="rgb(0,0,0)" stroke-width="0.09999999999999999" fill="rgb(0,137,212)"/>
  </g>
  <g id="t00006s">
    <use xlink:href="#t00007s" transform="matrix(-0.24999999999999997 -0.4330127018922194 0.4330127018922194 -0.24999999999999997 1 1.7320508075688774)"/>
    <use xlink:href="#t00007s" transform="matrix(-0.25 -0.4330127018922193 0.4330127018922193 -0.25 4 1.7320508075688772)"/>
    <use xlink:href="#t00007s" transform="matrix(-0.25000000000000006 0.43301270189221935 -0.43301270189221935 -0.25000000000000006 2.5 2.598076211353315)"/>
    <use xlink:href="#t00008s" transform="matrix(-0.25 0.4330127018922193 0.4330127018922193 0.25 2.5 0.8660254037844386)"/>
    <polygon points="0,0 4,0 4.5,0.8660254037844386 2.5,4.330127018922193 1.5,4.330127018922193 -0.5,0.8660254037844386" fill="none" stroke="rgb(0,0,0)" stroke-width="0.09999999999999999"/>
  </g>
  <g id="t00006f">
    <use xlink:href="#t00007f" transform="matrix(-0.24999999999999997 -0.4330127018922194 0.4330127018922194 -0.24999999999999997 1 1.7320508075688774)"/>
    <use xlink:href="#t00007f" transform="matrix(-0.25 -0.4330127018922193 0.4330127018922193 -0.25 4 1.7320508075688772)"/>
    <use xlink:href="#t00007f" transform="matrix(-0.25000000000000006 0.43301270189221935 -0.43301270189221935 -0.25000000000000006 2.5 2.598076211353315)"/>
    <use xlink:href="#t00008f" transform="matrix(-0.25 0.4330127018922193 0.4330127018922193 0.25 2.5 0.8660254037844386)"/>
  </g>
  <g id="t00010s">
  </g>
  <g id="t00010f">
    <polygon points="0,0 -1.5,-0.8660254037844386 -1,-1.7320508075688772 1,-1.7320508075688772 1.5,-0.8660254037844386 3,-1.7320508075688772 4.5,-0.8660254037844386 4,0 3,0 3,1.7320508075688772 1.5,2.598076211353316 1,1.7320508075688772 0,1.7320508075688772" stroke="rgb(0,0,0)" stroke-width="0.10000000000000006" fill="rgb(251,251,251)"/>
  </g>
  <g id="t00009s">
    <use xlink:href="#t00010s" transform="matrix(0.5 0 0 0.5 0.5 0.8660254037844386)"/>
    <polygon points="0,0 3,0 1.5,2.598076211353316" fill="none" stroke="rgb(0,0,0)" stroke-width="0.10000000000000006"/>
  </g>
  <g id="t00009f">
    <use xlink:href="#t00010f" transform="matrix(0.5 0 0 0.5 0.5 0.8660254037844386)"/>
  </g>
  <g id="t00012s">
  </g>
  <g id="t00012f">
    <polygon points="0,0 -1.5,-0.8660254037844386 -1,-1.7320508075688772 1,-1.7320508075688772 1.5,-0.8660254037844386 3,-1.7320508075688772 4.5,-0.8660254037844386 4,0 3,0 3,1.7320508075688772 1.5,2.598076211353316 1,1.7320508075688772 0,1.7320508075688772" stroke="rgb(0,0,0)" stroke-width="0.09999999999999998" fill="rgb(250,250,250)"/>
  </g>
  <g id="t00011s">
    <use xlink:href="#t00012s" transform="matrix(0.5 0 0 0.5 1.5 0.8660254037844386)"/>
    <use xlink:href="#t00012s" transform="matrix(0.25 -0.4330127018922193 0.4330127018922193 0.25 0 1.7320508075688772)"/>
    <polygon points="0,0 4,0 3,1.7320508075688772 -1,1.7320508075688772" fill="none" stroke="rgb(0,0,0)" stroke-width="0.09999999999999998"/>
  </g>
  <g id="t00011f">
    <use xlink:href="#t00012f" transform="matrix(0.5 0 0 0.5 1.5 0.8660254037844386)"/>
    <use xlink:href="#t00012f" transform="matrix(0.25 -0.4330127018922193 0.4330127018922193 0.25 0 1.7320508075688772)"/>
  </g>
  <g id="t00014s">
  </g>
  <g id="t00014f">
    <polygon points="0,0 -1.5,-0.8660254037844386 -1,-1.7320508075688772 1,-1.7320508075688772 1.5,-0.8660254037844386 3,-1.7320508075688772 4.5,-0.8660254037844386 4,0 3,0 3,1.7320508075688772 1.5,2.598076211353316 1,1.7320508075688772 0,1.7320508075688772" stroke="rgb(0,0,0)" stroke-width="0.09999999999999999" fill="rgb(191,191,191)"/>
  </g>
  <g id="t00013s">
    <use xlink:href="#t00014s" transform="matrix(0.5 0 0 0.5 1.5 0.8660254037844386)"/>
    <use xlink:href="#t00014s" transform="matrix(0.25 -0.4330127018922193 0.4330127018922193 0.25 0 1.7320508075688772)"/>
    <polygon points="0,0 3,0 3.5,0.8660254037844386 3,1.7320508075688772 -1,1.7320508075688772" fill="none" stroke="rgb(0,0,0)" stroke-width="0.09999999999999999"/>
  </g>
  <g id="t00013f">
    <use xlink:href="#t00014f" transform="matrix(0.5 0 0 0.5 1.5 0.8660254037844386)"/>
    <use xlink:href="#t00014f" transform="matrix(0.25 -0.4330127018922193 0.4330127018922193 0.25 0 1.7320508075688772)"/>
  </g>
  <g id="t00005s">
    <use xlink:href="#t00006s" transform="matrix(1 0 0 1 -4.499999999999998 -2.5980762113533156)"/>
    <use xlink:href="#t00006s" transform="matrix(1 2.7755575615628914e-16 -2.7755575615628914e-16 1 1.7763568394002505e-15 -3.4641016151377553)"/>
    <use xlink:href="#t00006s" transform="matrix(-0.49999999999999994 -0.8660254037844388 0.8660254037844388 -0.49999999999999994 -3.552713678800501e-15 5.196152422706632)"/>
    <use xlink:href="#t00009s" transform="matrix(-0.9999999999999993 0 0 -0.9999999999999993 1.5000000000000009 0.866025403784437)"/>
    <use xlink:href="#t00011s" transform="matrix(-0.5 -0.8660254037844388 0.8660254037844388 -0.5 -2.0000000000000036 5.196152422706632)"/>
    <use xlink:href="#t00013s" transform="matrix(-0.5 -0.8660254037844386 0.8660254037844386 -0.5 -4.999999999999998 1.7320508075688772)"/>
    <use xlink:href="#t00011s" transform="matrix(1 0 0 1 -3.4999999999999982 -4.330127018922193)"/>
    <use xlink:href="#t00013s" transform="matrix(1 2.9605947323337506e-16 -2.9605947323337506e-16 1 1.0000000000000018 -5.196152422706632)"/>
    <use xlink:href="#t00011s" transform="matrix(0.5000000000000004 -0.8660254037844384 0.8660254037844384 0.5000000000000004 2.5 0.8660254037844379)"/>
    <use xlink:href="#t00013s" transform="matrix(-0.5000000000000001 0.8660254037844387 -0.8660254037844387 -0.5000000000000001 3.9999999999999964 3.464101615137754)"/>
    <polygon points="-5.280821917808215,-3.3336046364853096 4.500000000000002,-4.330127018922193 5.527397260273977,-2.906523615440919 1.4999999999999964,6.0621778264910695 -0.2465753424657624,6.240128251926228 -5.999999999999998,-1.7320508075688772" fill="none" stroke="rgb(0,0,0)" stroke-width="0.19999999999999998"/>
  </g>
  <g id="t00005f">
    <use xlink:href="#t00006f" transform="matrix(1 0 0 1 -4.499999999999998 -2.5980762113533156)"/>
    <use xlink:href="#t00006f" transform="matrix(1 2.7755575615628914e-16 -2.7755575615628914e-16 1 1.7763568394002505e-15 -3.4641016151377553)"/>
    <use xlink:href="#t00006f" transform="matrix(-0.49999999999999994 -0.8660254037844388 0.8660254037844388 -0.49999999999999994 -3.552713678800501e-15 5.196152422706632)"/>
    <use xlink:href="#t00009f" transform="matrix(-0.9999999999999993 0 0 -0.9999999999999993 1.5000000000000009 0.866025403784437)"/>
    <use xlink:href="#t00011f" transform="matrix(-0.5 -0.8660254037844388 0.8660254037844388 -0.5 -2.0000000000000036 5.196152422706632)"/>
    <use xlink:href="#t00013f" transform="matrix(-0.5 -0.8660254037844386 0.8660254037844386 -0.5 -4.999999999999998 1.7320508075688772)"/>
    <use xlink:href="#t00011f" transform="matrix(1 0 0 1 -3.4999999999999982 -4.330127018922193)"/>
    <use xlink:href="#t00013f" transform="matrix(1 2.9605947323337506e-16 -2.9605947323337506e-16 1 1.0000000000000018 -5.196152422706632)"/>
    <use xlink:href="#t00011f" transform="matrix(0.5000000000000004 -0.8660254037844384 0.8660254037844384 0.5000000000000004 2.5 0.8660254037844379)"/>
    <use xlink:href="#t00013f" transform="matrix(-0.5000000000000001 0.8660254037844387 -0.8660254037844387 -0.5000000000000001 3.9999999999999964 3.464101615137754)"/>
  </g>
  <g id="t00015s">
    <use xlink:href="#t00006s" transform="matrix(0.5000000000000007 -0.8660254037844384 0.8660254037844384 0.5000000000000007 -2.500000000000001 0.866025403784441)"/>
    <polygon points="4.253424657534238,1.9100012330040377 -3.7808219178082174,2.728573190005757 -0.47260273972602285,-4.638574423009794" fill="none" stroke="rgb(0,0,0)" stroke-width="0.19999999999999998"/>
  </g>
  <g id="t00015f">
    <use xlink:href="#t00006f" transform="matrix(0.5000000000000007 -0.8660254037844384 0.8660254037844384 0.5000000000000007 -2.500000000000001 0.866025403784441)"/>
  </g>
  <g id="t00016s">
    <use xlink:href="#t00013s" transform="matrix(0.5 -0.8660254037844387 0.8660254037844387 0.5 -6 0)"/>
    <use xlink:href="#t00006s" transform="matrix(0.5000000000000001 0.8660254037844387 -0.8660254037844387 0.5000000000000001 -2 -1.7320508075688776)"/>
    <use xlink:href="#t00011s" transform="matrix(0.5 0.8660254037844387 -0.8660254037844387 0.5 0 -1.7320508075688776)"/>
    <use xlink:href="#t00006s" transform="matrix(-0.5 0.8660254037844388 -0.8660254037844388 -0.5 5 -1.7320508075688776)"/>
    <use xlink:href="#t00013s" transform="matrix(-0.5 0.8660254037844388 -0.8660254037844388 -0.5 6 0)"/>
    <polygon points="-3.5,-2.598076211353317 6.2808219178082165,-3.5945985937902005 3.5,2.5980762113533165 -6.2808219178082165,3.5945985937901996" fill="none" stroke="rgb(0,0,0)" stroke-width="0.19999999999999982"/>
  </g>
  <g id="t00016f">
    <use xlink:href="#t00013f" transform="matrix(0.5 -0.8660254037844387 0.8660254037844387 0.5 -6 0)"/>
    <use xlink:href="#t00006f" transform="matrix(0.5000000000000001 0.8660254037844387 -0.8660254037844387 0.5000000000000001 -2 -1.7320508075688776)"/>
    <use xlink:href="#t00011f" transform="matrix(0.5 0.8660254037844387 -0.8660254037844387 0.5 0 -1.7320508075688776)"/>
    <use xlink:href="#t00006f" transform="matrix(-0.5 0.8660254037844388 -0.8660254037844388 -0.5 5 -1.7320508075688776)"/>
    <use xlink:href="#t00013f" transform="matrix(-0.5 0.8660254037844388 -0.8660254037844388 -0.5 6 0)"/>
  </g>
  <g id="t00017s">
    <use xlink:href="#t00013s" transform="matrix(0.5 -0.8660254037844386 0.8660254037844386 0.5 -6.943835616438356 -0.026099395730489583)"/>
    <use xlink:href="#t00006s" transform="matrix(0.49999999999999994 0.8660254037844388 -0.8660254037844388 0.49999999999999994 -2.9438356164383563 -1.7581502032993672)"/>
    <use xlink:href="#t00011s" transform="matrix(0.5 0.8660254037844388 -0.8660254037844388 0.5 -0.9438356164383563 -1.7581502032993672)"/>
    <use xlink:href="#t00006s" transform="matrix(-0.5000000000000002 0.8660254037844388 -0.8660254037844388 -0.5000000000000002 4.056164383561644 -1.7581502032993672)"/>
    <use xlink:href="#t00013s" transform="matrix(1 0 0 1 0.5561643835616437 -4.356226414652683)"/>
    <use xlink:href="#t00013s" transform="matrix(-0.5 0.8660254037844388 -0.8660254037844388 -0.5 5.056164383561644 -0.026099395730489583)"/>
    <polygon points="-4.443835616438356,-2.6241756070838047 4.056164383561644,-3.490201010868244 5.056164383561644,-0.026099395730489583 2.5561643835616437,2.5719768156228273 -7.224657534246573,3.5684991980597105" fill="none" stroke="rgb(0,0,0)" stroke-width="0.20000000000000007"/>
  </g>
  <g id="t00017f">
    <use xlink:href="#t00013f" transform="matrix(0.5 -0.8660254037844386 0.8660254037844386 0.5 -6.943835616438356 -0.026099395730489583)"/>
    <use xlink:href="#t00006f" transform="matrix(0.49999999999999994 0.8660254037844388 -0.8660254037844388 0.49999999999999994 -2.9438356164383563 -1.7581502032993672)"/>
    <use xlink:href="#t00011f" transform="matrix(0.5 0.8660254037844388 -0.8660254037844388 0.5 -0.9438356164383563 -1.7581502032993672)"/>
    <use xlink:href="#t00006f" transform="matrix(-0.5000000000000002 0.8660254037844388 -0.8660254037844388 -0.5000000000000002 4.056164383561644 -1.7581502032993672)"/>
    <use xlink:href="#t00013f" transform="matrix(1 0 0 1 0.5561643835616437 -4.356226414652683)"/>
    <use xlink:href="#t00013f" transform="matrix(-0.5 0.8660254037844388 -0.8660254037844388 -0.5 5.056164383561644 -0.026099395730489583)"/>
  </g>
  <g id="t00004s">
    <use xlink:href="#t00005s" transform="matrix(1 0 0 1 -5.999999999999997 -1.7320508075688739)"/>
    <use xlink:href="#t00005s" transform="matrix(0.9999999999999999 -4.3021142204224816e-16 4.3021142204224816e-16 0.9999999999999999 4.500000000000003 -4.330127018922191)"/>
    <use xlink:href="#t00005s" transform="matrix(-0.5000000000000002 -0.8660254037844397 0.8660254037844397 -0.5000000000000002 1.4999999999999956 6.0621778264910615)"/>
    <use xlink:href="#t00015s" transform="matrix(1 -5.551115123125783e-16 5.551115123125783e-16 1 4.440892098500626e-15 -2.220446049250313e-16)"/>
    <use xlink:href="#t00016s" transform="matrix(-0.5000000000000001 -0.8660254037844397 0.8660254037844397 -0.5000000000000001 -5.000000000000012 8.660254037844377)"/>
    <use xlink:href="#t00017s" transform="matrix(-0.4999999999999995 -0.8660254037844384 0.8660254037844384 -0.4999999999999995 -12.94931506849315 0.035590085087034096)"/>
    <use xlink:href="#t00016s" transform="matrix(1 -1.3877787807814457e-17 1.3877787807814457e-17 1 -4.9999999999999964 -8.660254037844382)"/>
    <use xlink:href="#t00017s" transform="matrix(1 -4.163336342344337e-16 4.163336342344337e-16 1 6.443835616438359 -11.232230853467211)"/>
    <use xlink:href="#t00016s" transform="matrix(0.5000000000000002 -0.8660254037844384 0.8660254037844384 0.5000000000000002 10 1.7763568394002505e-15)"/>
    <use xlink:href="#t00017s" transform="matrix(-0.5000000000000007 0.8660254037844386 -0.8660254037844386 -0.5000000000000007 6.505479452054794 11.19664076838018)"/>
    <polygon points="-13.763157894736839,-8.341192046976438 11.500000000000004,-11.258330249197703 14.105263157894747,-7.748648349650241 3.9999999999999956,15.588457268119894 -0.34210526315790357,16.089840396626677 -15.499999999999993,-4.33012701892219" fill="none" stroke="rgb(0,0,0)" stroke-width="0.39999999999999997"/>
  </g>
  <g id="t00004f">
    <use xlink:href="#t00005f" transform="matrix(1 0 0 1 -5.999999999999997 -1.7320508075688739)"/>
    <use xlink:href="#t00005f" transform="matrix(0.9999999999999999 -4.3021142204224816e-16 4.3021142204224816e-16 0.9999999999999999 4.500000000000003 -4.330127018922191)"/>
    <use xlink:href="#t00005f" transform="matrix(-0.5000000000000002 -0.8660254037844397 0.8660254037844397 -0.5000000000000002 1.4999999999999956 6.0621778264910615)"/>
    <use xlink:href="#t00015f" transform="matrix(1 -5.551115123125783e-16 5.551115123125783e-16 1 4.440892098500626e-15 -2.220446049250313e-16)"/>
    <use xlink:href="#t00016f" transform="matrix(-0.5000000000000001 -0.8660254037844397 0.8660254037844397 -0.5000000000000001 -5.000000000000012 8.660254037844377)"/>
    <use xlink:href="#t00017f" transform="matrix(-0.4999999999999995 -0.8660254037844384 0.8660254037844384 -0.4999999999999995 -12.94931506849315 0.035590085087034096)"/>
    <use xlink:href="#t00016f" transform="matrix(1 -1.3877787807814457e-17 1.3877787807814457e-17 1 -4.9999999999999964 -8.660254037844382)"/>
    <use xlink:href="#t00017f" transform="matrix(1 -4.163336342344337e-16 4.163336342344337e-16 1 6.443835616438359 -11.232230853467211)"/>
    <use xlink:href="#t00016f" transform="matrix(0.5000000000000002 -0.8660254037844384 0.8660254037844384 0.5000000000000002 10 1.7763568394002505e-15)"/>
    <use xlink:href="#t00017f" transform="matrix(-0.5000000000000007 0.8660254037844386 -0.8660254037844386 -0.5000000000000007 6.505479452054794 11.19664076838018)"/>
  </g>
  <g id="t00018s">
    <use xlink:href="#t00005s" transform="matrix(0.5000000000000003 -0.8660254037844384 0.8660254037844384 0.5000000000000003 0 1.3322676295501878e-14)"/>
    <polygon points="11.157894736842092,4.831510147428979 -9.763157894736842,7.247265221143447 -1.394736842105253,-12.078775368572426" fill="none" stroke="rgb(0,0,0)" stroke-width="0.4000000000000007"/>
  </g>
  <g id="t00018f">
    <use xlink:href="#t00005f" transform="matrix(0.5000000000000003 -0.8660254037844384 0.8660254037844384 0.5000000000000003 0 1.3322676295501878e-14)"/>
  </g>
  <g id="t00019s">
    <use xlink:href="#t00017s" transform="matrix(0.49999999999999967 -0.8660254037844385 0.8660254037844385 0.49999999999999967 -11.505479452054795 -2.536386730535792)"/>
    <use xlink:href="#t00005s" transform="matrix(0.5000000000000002 0.8660254037844383 -0.8660254037844383 0.5000000000000002 -6.499999999999999 2.598076211353316)"/>
    <use xlink:href="#t00016s" transform="matrix(0.5000000000000002 0.8660254037844384 -0.8660254037844384 0.5000000000000002 -1.7763568394002505e-15 0)"/>
    <use xlink:href="#t00005s" transform="matrix(-0.49999999999999917 0.866025403784439 -0.866025403784439 -0.49999999999999917 6.499999999999995 -2.5980762113533196)"/>
    <use xlink:href="#t00017s" transform="matrix(-0.4999999999999989 0.8660254037844388 -0.8660254037844388 -0.4999999999999989 11.505479452054793 2.536386730535787)"/>
    <polygon points="-9.000000000000002,-6.928203230275503 16.263157894736842,-9.84534143249677 9,6.928203230275503 -16.263157894736842,9.845341432496769" fill="none" stroke="rgb(0,0,0)" stroke-width="0.40000000000000047"/>
  </g>
  <g id="t00019f">
    <use xlink:href="#t00017f" transform="matrix(0.49999999999999967 -0.8660254037844385 0.8660254037844385 0.49999999999999967 -11.505479452054795 -2.536386730535792)"/>
    <use xlink:href="#t00005f" transform="matrix(0.5000000000000002 0.8660254037844383 -0.8660254037844383 0.5000000000000002 -6.499999999999999 2.598076211353316)"/>
    <use xlink:href="#t00016f" transform="matrix(0.5000000000000002 0.8660254037844384 -0.8660254037844384 0.5000000000000002 -1.7763568394002505e-15 0)"/>
    <use xlink:href="#t00005f" transform="matrix(-0.49999999999999917 0.866025403784439 -0.866025403784439 -0.49999999999999917 6.499999999999995 -2.5980762113533196)"/>
    <use xlink:href="#t00017f" transform="matrix(-0.4999999999999989 0.8660254037844388 -0.8660254037844388 -0.4999999999999989 11.505479452054793 2.536386730535787)"/>
  </g>
  <g id="t00020s">
    <use xlink:href="#t00017s" transform="matrix(0.5 -0.8660254037844392 0.8660254037844392 0.5 -14.15284787310744 -2.60019912870937)"/>
    <use xlink:href="#t00005s" transform="matrix(0.500000000000001 0.866025403784439 -0.866025403784439 0.500000000000001 -9.14736842105264 2.5342638131797415)"/>
    <use xlink:href="#t00016s" transform="matrix(0.5000000000000009 0.8660254037844389 -0.8660254037844389 0.5000000000000009 -2.647368421052633 -0.06381239817358164)"/>
    <use xlink:href="#t00005s" transform="matrix(-0.4999999999999991 0.8660254037844392 -0.8660254037844392 -0.4999999999999991 3.852631578947367 -2.661888609526901)"/>
    <use xlink:href="#t00017s" transform="matrix(0.9999999999999996 -7.355227538141662e-16 7.355227538141662e-16 0.9999999999999996 5.796467195385716 -9.563992444071925)"/>
    <use xlink:href="#t00017s" transform="matrix(-0.49999999999999895 0.8660254037844393 -0.8660254037844393 -0.49999999999999895 8.858111031002167 2.4725743323622034)"/>
    <polygon points="-11.647368421052647,-6.992015628449085 10.85263157894736,-9.590091839802415 13.352631578947367,-0.06381239817359585 6.352631578947381,6.864390832101922 -18.91052631578946,9.781529034323187" fill="none" stroke="rgb(0,0,0)" stroke-width="0.4000000000000002"/>
  </g>
  <g id="t00020f">
    <use xlink:href="#t00017f" transform="matrix(0.5 -0.8660254037844392 0.8660254037844392 0.5 -14.15284787310744 -2.60019912870937)"/>
    <use xlink:href="#t00005f" transform="matrix(0.500000000000001 0.866025403784439 -0.866025403784439 0.500000000000001 -9.14736842105264 2.5342638131797415)"/>
    <use xlink:href="#t00016f" transform="matrix(0.5000000000000009 0.8660254037844389 -0.8660254037844389 0.5000000000000009 -2.647368421052633 -0.06381239817358164)"/>
    <use xlink:href="#t00005f" transform="matrix(-0.4999999999999991 0.8660254037844392 -0.8660254037844392 -0.4999999999999991 3.852631578947367 -2.661888609526901)"/>
    <use xlink:href="#t00017f" transform="matrix(0.9999999999999996 -7.355227538141662e-16 7.355227538141662e-16 0.9999999999999996 5.796467195385716 -9.563992444071925)"/>
    <use xlink:href="#t00017f" transform="matrix(-0.49999999999999895 0.8660254037844393 -0.8660254037844393 -0.49999999999999895 8.858111031002167 2.4725743323622034)"/>
  </g>
  <g id="t00003s">
    <use xlink:href="#t00004s" transform="matrix(1 0 0 1 -15.499999999999995 -4.330127018922157)"/>
    <use xlink:href="#t00004s" transform="matrix(0.9999999999999988 -1.942890293094024e-16 1.942890293094024e-16 0.9999999999999988 11.500000000000009 -11.258330249197707)"/>
    <use xlink:href="#t00004s" transform="matrix(-0.5000000000000004 -0.866025403784437 0.866025403784437 -0.5000000000000004 3.9999999999999734 15.588457268119894)"/>
    <use xlink:href="#t00018s" transform="matrix(0.9999999999999982 -2.0539125955565396e-15 2.0539125955565396e-15 0.9999999999999982 2.842170943040401e-14 2.6645352591003757e-15)"/>
    <use xlink:href="#t00019s" transform="matrix(-0.5000000000000003 -0.8660254037844369 0.8660254037844369 -0.5000000000000003 -12.999999999999996 22.51666049839541)"/>
    <use xlink:href="#t00020s" transform="matrix(-0.4999999999999994 -0.8660254037844384 0.8660254037844384 -0.4999999999999994 -33.76842105263157 0.2734817064582904)"/>
    <use xlink:href="#t00019s" transform="matrix(0.9999999999999998 0 0 0.9999999999999998 -12.999999999999991 -22.51666049839536)"/>
    <use xlink:href="#t00020s" transform="matrix(0.9999999999999989 -1.249000902703301e-16 1.249000902703301e-16 0.9999999999999989 16.647368421052626 -29.381051330497307)"/>
    <use xlink:href="#t00019s" transform="matrix(0.4999999999999998 -0.8660254037844375 0.8660254037844375 0.4999999999999998 25.999999999999993 -2.042810365310288e-14)"/>
    <use xlink:href="#t00020s" transform="matrix(-0.49999999999999845 0.8660254037844375 -0.8660254037844375 -0.49999999999999845 17.121052631578927 29.10756962403903)"/>
    <polygon points="-36.005100595069386,-21.694071336172286 29.99999999999998,-29.444863728670903 36.79016718617175,-20.334296113058137 10.500000000000002,40.70319397786855 -0.7850665911023622,42.028367449230416 -40.49999999999998,-11.258330249197648" fill="none" stroke="rgb(0,0,0)" stroke-width="0.7999999999999999"/>
  </g>
  <g id="t00003f">
    <use xlink:href="#t00004f" transform="matrix(1 0 0 1 -15.499999999999995 -4.330127018922157)"/>
    <use xlink:href="#t00004f" transform="matrix(0.9999999999999988 -1.942890293094024e-16 1.942890293094024e-16 0.9999999999999988 11.500000000000009 -11.258330249197707)"/>
    <use xlink:href="#t00004f" transform="matrix(-0.5000000000000004 -0.866025403784437 0.866025403784437 -0.5000000000000004 3.9999999999999734 15.588457268119894)"/>
    <use xlink:href="#t00018f" transform="matrix(0.9999999999999982 -2.0539125955565396e-15 2.0539125955565396e-15 0.9999999999999982 2.842170943040401e-14 2.6645352591003757e-15)"/>
    <use xlink:href="#t00019f" transform="matrix(-0.5000000000000003 -0.8660254037844369 0.8660254037844369 -0.5000000000000003 -12.999999999999996 22.51666049839541)"/>
    <use xlink:href="#t00020f" transform="matrix(-0.4999999999999994 -0.8660254037844384 0.8660254037844384 -0.4999999999999994 -33.76842105263157 0.2734817064582904)"/>
    <use xlink:href="#t00019f" transform="matrix(0.9999999999999998 0 0 0.9999999999999998 -12.999999999999991 -22.51666049839536)"/>
    <use xlink:href="#t00020f" transform="matrix(0.9999999999999989 -1.249000902703301e-16 1.249000902703301e-16 0.9999999999999989 16.647368421052626 -29.381051330497307)"/>
    <use xlink:href="#t00019f" transform="matrix(0.4999999999999998 -0.8660254037844375 0.8660254037844375 0.4999999999999998 25.999999999999993 -2.042810365310288e-14)"/>
    <use xlink:href="#t00020f" transform="matrix(-0.49999999999999845 0.8660254037844375 -0.8660254037844375 -0.49999999999999845 17.121052631578927 29.10756962403903)"/>
  </g>
  <g id="t00021s">
    <use xlink:href="#t00004s" transform="matrix(0.49999999999999983 -0.8660254037844374 0.8660254037844374 0.49999999999999983 -4.263256414560601e-14 3.375077994860476e-14)"/>
    <polygon points="29.214933408897593,12.583503720559515 -25.505100595069337,19.00912264169626 -3.709832813828257,-31.59262636225578" fill="none" stroke="rgb(0,0,0)" stroke-width="0.7999999999999967"/>
  </g>
  <g id="t00021f">
    <use xlink:href="#t00004f" transform="matrix(0.49999999999999983 -0.8660254037844374 0.8660254037844374 0.49999999999999983 -4.263256414560601e-14 3.375077994860476e-14)"/>
  </g>
  <g id="t00022s">
    <use xlink:href="#t00020s" transform="matrix(0.4999999999999994 -0.866025403784438 0.866025403784438 0.4999999999999994 -30.121052631578934 -6.590909125643655)"/>
    <use xlink:href="#t00004s" transform="matrix(0.5000000000000003 0.8660254037844382 -0.8660254037844382 0.5000000000000003 -16.99999999999998 6.928203230275507)"/>
    <use xlink:href="#t00019s" transform="matrix(0.5000000000000002 0.8660254037844379 -0.8660254037844379 0.5000000000000002 7.105427357601002e-15 -7.105427357601002e-15)"/>
    <use xlink:href="#t00004s" transform="matrix(-0.4999999999999988 0.8660254037844387 -0.8660254037844387 -0.4999999999999988 16.999999999999986 -6.928203230275528)"/>
    <use xlink:href="#t00020s" transform="matrix(-0.4999999999999989 0.8660254037844386 -0.8660254037844386 -0.4999999999999989 30.121052631578948 6.590909125643634)"/>
    <polygon points="-23.5,-18.186533479473184 42.505100595069365,-25.9373258719718 23.5,18.18653347947317 -42.505100595069365,25.93732587197179" fill="none" stroke="rgb(0,0,0)" stroke-width="0.799999999999998"/>
  </g>
  <g id="t00022f">
    <use xlink:href="#t00020f" transform="matrix(0.4999999999999994 -0.866025403784438 0.866025403784438 0.4999999999999994 -30.121052631578934 -6.590909125643655)"/>
    <use xlink:href="#t00004f" transform="matrix(0.5000000000000003 0.8660254037844382 -0.8660254037844382 0.5000000000000003 -16.99999999999998 6.928203230275507)"/>
    <use xlink:href="#t00019f" transform="matrix(0.5000000000000002 0.8660254037844379 -0.8660254037844379 0.5000000000000002 7.105427357601002e-15 -7.105427357601002e-15)"/>
    <use xlink:href="#t00004f" transform="matrix(-0.4999999999999988 0.8660254037844387 -0.8660254037844387 -0.4999999999999988 16.999999999999986 -6.928203230275528)"/>
    <use xlink:href="#t00020f" transform="matrix(-0.4999999999999989 0.8660254037844386 -0.8660254037844386 -0.4999999999999989 30.121052631578948 6.590909125643634)"/>
  </g>
  <g id="t00023s">
    <use xlink:href="#t00020s" transform="matrix(0.49999999999999895 -0.8660254037844369 0.8660254037844369 0.49999999999999895 -37.120032512564975 -6.7554269580882504)"/>
    <use xlink:href="#t00004s" transform="matrix(0.49999999999999933 0.8660254037844372 -0.8660254037844372 0.49999999999999933 -23.99897988098604 6.763685397830898)"/>
    <use xlink:href="#t00019s" transform="matrix(0.4999999999999992 0.8660254037844366 -0.8660254037844366 0.4999999999999992 -6.998979880986084 -0.16451783244459506)"/>
    <use xlink:href="#t00004s" transform="matrix(-0.4999999999999982 0.8660254037844372 -0.8660254037844372 -0.4999999999999982 10.001020119013873 -7.092721062720102)"/>
    <use xlink:href="#t00020s" transform="matrix(0.9999999999999973 -3.608224830031759e-16 3.608224830031759e-16 0.9999999999999973 15.148388540066463 -25.21544214401969)"/>
    <use xlink:href="#t00020s" transform="matrix(-0.4999999999999981 0.8660254037844367 -0.8660254037844367 -0.4999999999999981 23.122072750592807 6.426391293199039)"/>
    <polygon points="-30.49897988098604,-18.35105131191777 28.501020119013788,-25.279254542193286 35.001020119013816,-0.1645178324446448 16.501020119013887,18.022015647028553 -49.50408047605548,25.772808039527177" fill="none" stroke="rgb(0,0,0)" stroke-width="0.8000000000000009"/>
  </g>
  <g id="t00023f">
    <use xlink:href="#t00020f" transform="matrix(0.49999999999999895 -0.8660254037844369 0.8660254037844369 0.49999999999999895 -37.120032512564975 -6.7554269580882504)"/>
    <use xlink:href="#t00004f" transform="matrix(0.49999999999999933 0.8660254037844372 -0.8660254037844372 0.49999999999999933 -23.99897988098604 6.763685397830898)"/>
    <use xlink:href="#t00019f" transform="matrix(0.4999999999999992 0.8660254037844366 -0.8660254037844366 0.4999999999999992 -6.998979880986084 -0.16451783244459506)"/>
    <use xlink:href="#t00004f" transform="matrix(-0.4999999999999982 0.8660254037844372 -0.8660254037844372 -0.4999999999999982 10.001020119013873 -7.092721062720102)"/>
    <use xlink:href="#t00020f" transform="matrix(0.9999999999999973 -3.608224830031759e-16 3.608224830031759e-16 0.9999999999999973 15.148388540066463 -25.21544214401969)"/>
    <use xlink:href="#t00020f" transform="matrix(-0.4999999999999981 0.8660254037844367 -0.8660254037844367 -0.4999999999999981 23.122072750592807 6.426391293199039)"/>
  </g>
  <g id="t00002s">
    <use xlink:href="#t00003s" transform="matrix(1 0 0 1 -40.50000000000009 -11.25833024919781)"/>
    <use xlink:href="#t00003s" transform="matrix(1.0000000000000027 -9.853229343548264e-16 9.853229343548264e-16 1.0000000000000027 29.99999999999988 -29.444863728670946)"/>
    <use xlink:href="#t00003s" transform="matrix(-0.5000000000000019 -0.8660254037844408 0.8660254037844408 -0.5000000000000019 10.499999999999972 40.703193977868736)"/>
    <use xlink:href="#t00021s" transform="matrix(1.000000000000004 1.887379141862766e-15 -1.887379141862766e-15 1.000000000000004 -1.2789769243681803e-13 -3.375077994860476e-14)"/>
    <use xlink:href="#t00022s" transform="matrix(-0.5000000000000018 -0.8660254037844407 0.8660254037844407 -0.5000000000000018 -34.000000000000085 58.889727457342005)"/>
    <use xlink:href="#t00023s" transform="matrix(-0.4999999999999995 -0.8660254037844376 0.8660254037844376 -0.4999999999999995 -88.35701331822048 0.7846499365429356)"/>
    <use xlink:href="#t00022s" transform="matrix(1 5.551115123125783e-17 -5.551115123125783e-17 1 -34.00000000000011 -58.889727457341884)"/>
    <use xlink:href="#t00023s" transform="matrix(1.0000000000000027 -9.159339953157541e-16 9.159339953157541e-16 1.0000000000000027 43.49897988098598 -76.91174310437054)"/>
    <use xlink:href="#t00022s" transform="matrix(0.5000000000000009 -0.8660254037844405 0.8660254037844405 0.5000000000000009 67.99999999999997 -3.197442310920451e-14)"/>
    <use xlink:href="#t00023s" transform="matrix(-0.5000000000000004 0.8660254037844406 -0.8660254037844406 -0.5000000000000004 44.85803343723442 76.12709316782754)"/>
    <polygon points="-94.2519523986613,-56.74125015401491 78.49999999999989,-77.07626093681522 96.26534027519514,-53.253960056515076 27.500000000000107,106.52112466548613 -2.013387876533841,109.99521021052998 -106,-29.444863728670903" fill="none" stroke="rgb(0,0,0)" stroke-width="1.5999999999999999"/>
  </g>
  <g id="t00002f">
    <use xlink:href="#t00003f" transform="matrix(1 0 0 1 -40.50000000000009 -11.25833024919781)"/>
    <use xlink:href="#t00003f" transform="matrix(1.0000000000000027 -9.853229343548264e-16 9.853229343548264e-16 1.0000000000000027 29.99999999999988 -29.444863728670946)"/>
    <use xlink:href="#t00003f" transform="matrix(-0.5000000000000019 -0.8660254037844408 0.8660254037844408 -0.5000000000000019 10.499999999999972 40.703193977868736)"/>
    <use xlink:href="#t00021f" transform="matrix(1.000000000000004 1.887379141862766e-15 -1.887379141862766e-15 1.000000000000004 -1.2789769243681803e-13 -3.375077994860476e-14)"/>
    <use xlink:href="#t00022f" transform="matrix(-0.5000000000000018 -0.8660254037844407 0.8660254037844407 -0.5000000000000018 -34.000000000000085 58.889727457342005)"/>
    <use xlink:href="#t00023f" transform="matrix(-0.4999999999999995 -0.8660254037844376 0.8660254037844376 -0.4999999999999995 -88.35701331822048 0.7846499365429356)"/>
    <use xlink:href="#t00022f" transform="matrix(1 5.551115123125783e-17 -5.551115123125783e-17 1 -34.00000000000011 -58.889727457341884)"/>
    <use xlink:href="#t00023f" transform="matrix(1.0000000000000027 -9.159339953157541e-16 9.159339953157541e-16 1.0000000000000027 43.49897988098598 -76.91174310437054)"/>
    <use xlink:href="#t00022f" transform="matrix(0.5000000000000009 -0.8660254037844405 0.8660254037844405 0.5000000000000009 67.99999999999997 -3.197442310920451e-14)"/>
    <use xlink:href="#t00023f" transform="matrix(-0.5000000000000004 0.8660254037844406 -0.8660254037844406 -0.5000000000000004 44.85803343723442 76.12709316782754)"/>
  </g>
  <g id="t00024s">
    <use xlink:href="#t00003s" transform="matrix(0.5000000000000007 -0.8660254037844405 0.8660254037844405 0.5000000000000007 1.4210854715202004e-13 4.263256414560601e-14)"/>
    <polygon points="76.48661212346616,32.91894927371482 -66.75195239866139,49.7798745114711 -9.734659724804743,-82.69882378518592" fill="none" stroke="rgb(0,0,0)" stroke-width="1.6000000000000152"/>
  </g>
  <g id="t00024f">
    <use xlink:href="#t00003f" transform="matrix(0.5000000000000007 -0.8660254037844405 0.8660254037844405 0.5000000000000007 1.4210854715202004e-13 4.263256414560601e-14)"/>
  </g>
  <g id="t00025s">
    <use xlink:href="#t00023s" transform="matrix(0.499999999999999 -0.8660254037844384 0.8660254037844384 0.499999999999999 -78.85803343723434 -17.237365710485477)"/>
    <use xlink:href="#t00003s" transform="matrix(0.5000000000000009 0.8660254037844387 -0.8660254037844387 0.5000000000000009 -44.49999999999998 18.186533479473212)"/>
    <use xlink:href="#t00022s" transform="matrix(0.5000000000000007 0.8660254037844389 -0.8660254037844389 0.5000000000000007 -2.1316282072803006e-14 -2.842170943040401e-14)"/>
    <use xlink:href="#t00003s" transform="matrix(-0.49999999999999967 0.8660254037844402 -0.8660254037844402 -0.49999999999999967 44.49999999999994 -18.186533479473326)"/>
    <use xlink:href="#t00023s" transform="matrix(-0.49999999999999967 0.8660254037844403 -0.8660254037844403 -0.49999999999999967 78.85803343723434 17.237365710485392)"/>
    <polygon points="-61.500000000000085,-47.631397208143994 111.25195239866109,-67.9664079909443 61.50000000000007,47.631397208143994 -111.25195239866112,67.9664079909443" fill="none" stroke="rgb(0,0,0)" stroke-width="1.6000000000000127"/>
  </g>
  <g id="t00025f">
    <use xlink:href="#t00023f" transform="matrix(0.499999999999999 -0.8660254037844384 0.8660254037844384 0.499999999999999 -78.85803343723434 -17.237365710485477)"/>
    <use xlink:href="#t00003f" transform="matrix(0.5000000000000009 0.8660254037844387 -0.8660254037844387 0.5000000000000009 -44.49999999999998 18.186533479473212)"/>
    <use xlink:href="#t00022f" transform="matrix(0.5000000000000007 0.8660254037844389 -0.8660254037844389 0.5000000000000007 -2.1316282072803006e-14 -2.842170943040401e-14)"/>
    <use xlink:href="#t00003f" transform="matrix(-0.49999999999999967 0.8660254037844402 -0.8660254037844402 -0.49999999999999967 44.49999999999994 -18.186533479473326)"/>
    <use xlink:href="#t00023f" transform="matrix(-0.49999999999999967 0.8660254037844403 -0.8660254037844403 -0.49999999999999967 78.85803343723434 17.237365710485392)"/>
  </g>
  <g id="t00026s">
    <use xlink:href="#t00023s" transform="matrix(0.4999999999999999 -0.8660254037844404 0.8660254037844404 0.4999999999999999 -97.20764295750237 -17.66706117115075)"/>
    <use xlink:href="#t00003s" transform="matrix(0.5000000000000023 0.8660254037844404 -0.8660254037844404 0.5000000000000023 -62.849609520267904 17.756838018808025)"/>
    <use xlink:href="#t00022s" transform="matrix(0.5000000000000022 0.8660254037844406 -0.8660254037844406 0.5000000000000022 -18.349609520267848 -0.42969546066527187)"/>
    <use xlink:href="#t00003s" transform="matrix(-0.5000000000000002 0.8660254037844421 -0.8660254037844421 -0.5000000000000002 26.15039047973221 -18.616228940138626)"/>
    <use xlink:href="#t00023s" transform="matrix(1.0000000000000022 -1.457167719820518e-15 1.457167719820518e-15 1.0000000000000022 39.64937036071825 -66.08310831583827)"/>
    <use xlink:href="#t00023s" transform="matrix(-0.5 0.8660254037844416 -0.8660254037844416 -0.5 60.508423916966706 16.80767024982015)"/>
    <polygon points="-79.84960952026807,-48.06109266880932 74.65039047973215,-66.24762614828296 91.65039047973232,-0.4296954606654708 43.15039047973244,47.20170174747878 -129.60156191892875,67.53671253027909" fill="none" stroke="rgb(0,0,0)" stroke-width="1.599999999999997"/>
  </g>
  <g id="t00026f">
    <use xlink:href="#t00023f" transform="matrix(0.4999999999999999 -0.8660254037844404 0.8660254037844404 0.4999999999999999 -97.20764295750237 -17.66706117115075)"/>
    <use xlink:href="#t00003f" transform="matrix(0.5000000000000023 0.8660254037844404 -0.8660254037844404 0.5000000000000023 -62.849609520267904 17.756838018808025)"/>
    <use xlink:href="#t00022f" transform="matrix(0.5000000000000022 0.8660254037844406 -0.8660254037844406 0.5000000000000022 -18.349609520267848 -0.42969546066527187)"/>
    <use xlink:href="#t00003f" transform="matrix(-0.5000000000000002 0.8660254037844421 -0.8660254037844421 -0.5000000000000002 26.15039047973221 -18.616228940138626)"/>
    <use xlink:href="#t00023f" transform="matrix(1.0000000000000022 -1.457167719820518e-15 1.457167719820518e-15 1.0000000000000022 39.64937036071825 -66.08310831583827)"/>
    <use xlink:href="#t00023f" transform="matrix(-0.5 0.8660254037844416 -0.8660254037844416 -0.5 60.508423916966706 16.80767024982015)"/>
  </g>
  <g id="t00001s">
    <use xlink:href="#t00002s" transform="matrix(1 0 0 1 -105.99999999999932 -29.444863728670033)"/>
    <use xlink:href="#t00002s" transform="matrix(0.9999999999999946 2.248201624865942e-15 -2.248201624865942e-15 0.9999999999999946 78.50000000000028 -77.07626093681506)"/>
    <use xlink:href="#t00002s" transform="matrix(-0.49999999999999456 -0.8660254037844326 0.8660254037844326 -0.49999999999999456 27.50000000000037 106.52112466548563)"/>
    <use xlink:href="#t00024s" transform="matrix(0.9999999999999905 -2.6645352591003757e-15 2.6645352591003757e-15 0.9999999999999905 6.963318810448982e-13 3.552713678800501e-15)"/>
    <use xlink:href="#t00025s" transform="matrix(-0.49999999999999456 -0.8660254037844326 0.8660254037844326 -0.49999999999999456 -88.99999999999874 154.15252187362935)"/>
    <use xlink:href="#t00026s" transform="matrix(-0.4999999999999999 -0.8660254037844408 0.8660254037844408 -0.4999999999999999 -231.30267757530618 2.080457755065023)"/>
    <use xlink:href="#t00025s" transform="matrix(1 1.3877787807814457e-17 -1.3877787807814457e-17 1 -88.99999999999952 -154.15252187362927)"/>
    <use xlink:href="#t00026s" transform="matrix(0.9999999999999944 2.275957200481571e-15 -2.275957200481571e-15 0.9999999999999944 113.84960952026779 -201.3542236211083)"/>
    <use xlink:href="#t00025s" transform="matrix(0.4999999999999995 -0.8660254037844352 0.8660254037844352 0.4999999999999995 177.99999999999972 -3.268496584496461e-13)"/>
    <use xlink:href="#t00026s" transform="matrix(-0.49999999999999933 0.8660254037844317 -0.8660254037844317 -0.49999999999999933 117.45306805503878 199.27376586604393)"/>
    <polygon points="-246.75074598074548,-148.52969183952797 205.4999999999996,-201.78391908177358 252.00585933967886,-139.42756850232192 71.99999999999986,278.8601800185877 -5.255113358933414,287.95726034184986 -277.4999999999995,-77.0762609368141" fill="none" stroke="rgb(0,0,0)" stroke-width="3.1999999999999997"/>
  </g>
  <g id="t00001f">
    <use xlink:href="#t00002f" transform="matrix(1 0 0 1 -105.99999999999932 -29.444863728670033)"/>
    <use xlink:href="#t00002f" transform="matrix(0.9999999999999946 2.248201624865942e-15 -2.248201624865942e-15 0.9999999999999946 78.50000000000028 -77.07626093681506)"/>
    <use xlink:href="#t00002f" transform="matrix(-0.49999999999999456 -0.8660254037844326 0.8660254037844326 -0.49999999999999456 27.50000000000037 106.52112466548563)"/>
    <use xlink:href="#t00024f" transform="matrix(0.9999999999999905 -2.6645352591003757e-15 2.6645352591003757e-15 0.9999999999999905 6.963318810448982e-13 3.552713678800501e-15)"/>
    <use xlink:href="#t00025f" transform="matrix(-0.49999999999999456 -0.8660254037844326 0.8660254037844326 -0.49999999999999456 -88.99999999999874 154.15252187362935)"/>
    <use xlink:href="#t00026f" transform="matrix(-0.4999999999999999 -0.8660254037844408 0.8660254037844408 -0.4999999999999999 -231.30267757530618 2.080457755065023)"/>
    <use xlink:href="#t00025f" transform="matrix(1 1.3877787807814457e-17 -1.3877787807814457e-17 1 -88.99999999999952 -154.15252187362927)"/>
    <use xlink:href="#t00026f" transform="matrix(0.9999999999999944 2.275957200481571e-15 -2.275957200481571e-15 0.9999999999999944 113.84960952026779 -201.3542236211083)"/>
    <use xlink:href="#t00025f" transform="matrix(0.4999999999999995 -0.8660254037844352 0.8660254037844352 0.4999999999999995 177.99999999999972 -3.268496584496461e-13)"/>
    <use xlink:href="#t00026f" transform="matrix(-0.49999999999999933 0.8660254037844317 -0.8660254037844317 -0.49999999999999933 117.45306805503878 199.27376586604393)"/>
  </g>
  <g id="t00027s">
    <use xlink:href="#t00002s" transform="matrix(0.49999999999999933 -0.866025403784435 0.866025403784435 0.49999999999999933 -5.684341886080801e-13 2.4158453015843406e-13)"/>
    <polygon points="200.2448866410657,86.17334126007619 -174.7507459807445,130.3304881790599 -25.494140660321136,-216.5038294391361" fill="none" stroke="rgb(0,0,0)" stroke-width="3.1999999999999473"/>
  </g>
  <g id="t00027f">
    <use xlink:href="#t00002f" transform="matrix(0.49999999999999933 -0.866025403784435 0.866025403784435 0.49999999999999933 -5.684341886080801e-13 2.4158453015843406e-13)"/>
  </g>
  <g id="t00028s">
    <use xlink:href="#t00026s" transform="matrix(0.5000000000000016 -0.8660254037844375 0.8660254037844375 0.5000000000000016 -206.45306805503867 -45.121243992414634)"/>
    <use xlink:href="#t00002s" transform="matrix(0.49999999999999817 0.8660254037844373 -0.8660254037844373 0.49999999999999817 -116.49999999999964 47.631397208144165)"/>
    <use xlink:href="#t00025s" transform="matrix(0.49999999999999817 0.866025403784437 -0.866025403784437 0.49999999999999817 8.526512829121202e-14 5.684341886080802e-14)"/>
    <use xlink:href="#t00002s" transform="matrix(-0.4999999999999993 0.8660254037844342 -0.8660254037844342 -0.4999999999999993 116.49999999999966 -47.631397208143824)"/>
    <use xlink:href="#t00026s" transform="matrix(-0.49999999999999895 0.8660254037844343 -0.8660254037844343 -0.49999999999999895 206.4530680550385 45.12124399241475)"/>
    <polygon points="-160.99999999999955,-124.70765814495888 291.25074598074553,-177.96188538720452 160.99999999999955,124.70765814495886 -291.25074598074553,177.96188538720446" fill="none" stroke="rgb(0,0,0)" stroke-width="3.199999999999952"/>
  </g>
  <g id="t00028f">
    <use xlink:href="#t00026f" transform="matrix(0.5000000000000016 -0.8660254037844375 0.8660254037844375 0.5000000000000016 -206.45306805503867 -45.121243992414634)"/>
    <use xlink:href="#t00002f" transform="matrix(0.49999999999999817 0.8660254037844373 -0.8660254037844373 0.49999999999999817 -116.49999999999964 47.631397208144165)"/>
    <use xlink:href="#t00025f" transform="matrix(0.49999999999999817 0.866025403784437 -0.866025403784437 0.49999999999999817 8.526512829121202e-14 5.684341886080802e-14)"/>
    <use xlink:href="#t00002f" transform="matrix(-0.4999999999999993 0.8660254037844342 -0.8660254037844342 -0.4999999999999993 116.49999999999966 -47.631397208143824)"/>
    <use xlink:href="#t00026f" transform="matrix(-0.49999999999999895 0.8660254037844343 -0.8660254037844343 -0.49999999999999895 206.4530680550385 45.12124399241475)"/>
  </g>
  <g id="t00029s">
    <use xlink:href="#t00026s" transform="matrix(0.499999999999999 -0.8660254037844322 0.8660254037844322 0.499999999999999 -254.5029188588873 -46.24580999923495)"/>
    <use xlink:href="#t00002s" transform="matrix(0.49999999999999484 0.8660254037844324 -0.8660254037844324 0.49999999999999484 -164.5498508038488 46.50683120132334)"/>
    <use xlink:href="#t00025s" transform="matrix(0.49999999999999456 0.8660254037844323 -0.8660254037844323 0.49999999999999456 -48.04985080384972 -1.1245660068204302)"/>
    <use xlink:href="#t00002s" transform="matrix(-0.499999999999997 0.8660254037844286 -0.8660254037844286 -0.499999999999997 68.45014919614925 -48.75596321496397)"/>
    <use xlink:href="#t00026s" transform="matrix(0.9999999999999909 3.70536934468646e-15 -3.70536934468646e-15 0.9999999999999909 103.7997587164167 -173.0339258992566)"/>
    <use xlink:href="#t00026s" transform="matrix(-0.499999999999997 0.8660254037844288 -0.8660254037844288 -0.499999999999997 158.40321725118747 43.99667798559415)"/>
    <polygon points="-209.04985080384841,-125.83222415177875 195.45014919614823,-173.46362135992172 239.95014919614766,-1.124566006820487 112.95014919614869,123.58309213813766 -339.3005967845964,176.83731938038326" fill="none" stroke="rgb(0,0,0)" stroke-width="3.2000000000000113"/>
  </g>
  <g id="t00029f">
    <use xlink:href="#t00026f" transform="matrix(0.499999999999999 -0.8660254037844322 0.8660254037844322 0.499999999999999 -254.5029188588873 -46.24580999923495)"/>
    <use xlink:href="#t00002f" transform="matrix(0.49999999999999484 0.8660254037844324 -0.8660254037844324 0.49999999999999484 -164.5498508038488 46.50683120132334)"/>
    <use xlink:href="#t00025f" transform="matrix(0.49999999999999456 0.8660254037844323 -0.8660254037844323 0.49999999999999456 -48.04985080384972 -1.1245660068204302)"/>
    <use xlink:href="#t00002f" transform="matrix(-0.499999999999997 0.8660254037844286 -0.8660254037844286 -0.499999999999997 68.45014919614925 -48.75596321496397)"/>
    <use xlink:href="#t00026f" transform="matrix(0.9999999999999909 3.70536934468646e-15 -3.70536934468646e-15 0.9999999999999909 103.7997587164167 -173.0339258992566)"/>
    <use xlink:href="#t00026f" transform="matrix(-0.499999999999997 0.8660254037844288 -0.8660254037844288 -0.499999999999997 158.40321725118747 43.99667798559415)"/>
  </g>
  <g id="t00000s">
    <use xlink:href="#t00001s" transform="matrix(1 0 0 1 -277.5000000000027 -77.07626093681847)"/>
    <use xlink:href="#t00001s" transform="matrix(1.0000000000000109 -4.038436252074007e-15 4.038436252074007e-15 1.0000000000000109 205.4999999999975 -201.78391908177494)"/>
    <use xlink:href="#t00001s" transform="matrix(-0.500000000000011 -0.8660254037844495 0.8660254037844495 -0.500000000000011 71.99999999999812 278.8601800185916)"/>
    <use xlink:href="#t00027s" transform="matrix(1.0000000000000164 5.10702591327572e-15 -5.10702591327572e-15 1.0000000000000164 -3.353761712787673e-12 -5.968558980384842e-13)"/>
    <use xlink:href="#t00028s" transform="matrix(-0.500000000000011 -0.8660254037844494 0.8660254037844494 -0.500000000000011 -233.00000000000512 403.56783816355335)"/>
    <use xlink:href="#t00029s" transform="matrix(-0.49999999999999933 -0.866025403784435 0.866025403784435 -0.49999999999999933 -605.5510226717876 5.456722760543016)"/>
    <use xlink:href="#t00028s" transform="matrix(1 0 0 1 -233.0000000000026 -403.56783816355085)"/>
    <use xlink:href="#t00029s" transform="matrix(1.000000000000011 -4.052314039881821e-15 4.052314039881821e-15 1.000000000000011 298.0498508038482 -527.1509303016901)"/>
    <use xlink:href="#t00028s" transform="matrix(0.5000000000000024 -0.8660254037844465 0.8660254037844465 0.5000000000000024 466.00000000000017 -2.5579538487363607e-13)"/>
    <use xlink:href="#t00029s" transform="matrix(-0.500000000000001 0.8660254037844514 -0.8660254037844514 -0.500000000000001 307.5011718679371 521.6942075411441)"/>
    <polygon points="-646.0002849521543,-388.847826073051 537.9999999999984,-528.2754963085115 659.752238061689,-365.02874458403096 188.50000000000193,730.0594153902874 -13.751953109534668,753.8765706570819 -726.5000000000002,-201.78391908177596" fill="none" stroke="rgb(0,0,0)" stroke-width="6.3999999999999995"/>
  </g>
  <g id="t00000f">
    <use xlink:href="#t00001f" transform="matrix(1 0 0 1 -277.5000000000027 -77.07626093681847)"/>
    <use xlink:href="#t00001f" transform="matrix(1.0000000000000109 -4.038436252074007e-15 4.038436252074007e-15 1.0000000000000109 205.4999999999975 -201.78391908177494)"/>
    <use xlink:href="#t00001f" transform="matrix(-0.500000000000011 -0.8660254037844495 0.8660254037844495 -0.500000000000011 71.99999999999812 278.8601800185916)"/>
    <use xlink:href="#t00027f" transform="matrix(1.0000000000000164 5.10702591327572e-15 -5.10702591327572e-15 1.0000000000000164 -3.353761712787673e-12 -5.968558980384842e-13)"/>
    <use xlink:href="#t00028f" transform="matrix(-0.500000000000011 -0.8660254037844494 0.8660254037844494 -0.500000000000011 -233.00000000000512 403.56783816355335)"/>
    <use xlink:href="#t00029f" transform="matrix(-0.49999999999999933 -0.866025403784435 0.866025403784435 -0.49999999999999933 -605.5510226717876 5.456722760543016)"/>
    <use xlink:href="#t00028f" transform="matrix(1 0 0 1 -233.0000000000026 -403.56783816355085)"/>
    <use xlink:href="#t00029f" transform="matrix(1.000000000000011 -4.052314039881821e-15 4.052314039881821e-15 1.000000000000011 298.0498508038482 -527.1509303016901)"/>
    <use xlink:href="#t00028f" transform="matrix(0.5000000000000024 -0.8660254037844465 0.8660254037844465 0.5000000000000024 466.00000000000017 -2.5579538487363607e-13)"/>
    <use xlink:href="#t00029f" transform="matrix(-0.500000000000001 0.8660254037844514 -0.8660254037844514 -0.500000000000001 307.5011718679371 521.6942075411441)"/>
  </g>
  <g id="t00030s">
    <use xlink:href="#t00001s" transform="matrix(0.5000000000000024 -0.8660254037844465 0.8660254037844465 0.5000000000000024 4.547473508864641e-12 1.7053025658242404e-13)"/>
    <polygon points="524.2480468904666,225.60107434857173 -457.50028495215815,341.21158931723363 -66.74776193830826,-566.8126636658055" fill="none" stroke="rgb(0,0,0)" stroke-width="6.3999999999999995"/>
  </g>
  <g id="t00030f">
    <use xlink:href="#t00001f" transform="matrix(0.5000000000000024 -0.8660254037844465 0.8660254037844465 0.5000000000000024 4.547473508864641e-12 1.7053025658242404e-13)"/>
  </g>
  <g id="t00031s">
    <use xlink:href="#t00029s" transform="matrix(0.49999999999999656 -0.8660254037844397 0.8660254037844397 0.49999999999999656 -540.5011718679357 -118.12636937759089)"/>
    <use xlink:href="#t00001s" transform="matrix(0.5000000000000032 0.8660254037844397 -0.8660254037844397 0.5000000000000032 -305.0000000000001 124.70765814495905)"/>
    <use xlink:href="#t00028s" transform="matrix(0.5000000000000032 0.8660254037844398 -0.8660254037844398 0.5000000000000032 -3.979039320256561e-13 -5.684341886080801e-13)"/>
    <use xlink:href="#t00001s" transform="matrix(-0.49999999999999856 0.8660254037844454 -0.8660254037844454 -0.49999999999999856 304.99999999999955 -124.70765814496121)"/>
    <use xlink:href="#t00029s" transform="matrix(-0.4999999999999985 0.8660254037844456 -0.8660254037844456 -0.4999999999999985 540.5011718679361 118.12636937758919)"/>
    <polygon points="-421.5000000000017,-326.49157722673135 762.5002849521511,-465.91924746219183 421.5000000000016,326.4915772267315 -762.5002849521511,465.91924746219206" fill="none" stroke="rgb(0,0,0)" stroke-width="6.3999999999999995"/>
  </g>
  <g id="t00031f">
    <use xlink:href="#t00029f" transform="matrix(0.49999999999999656 -0.8660254037844397 0.8660254037844397 0.49999999999999656 -540.5011718679357 -118.12636937759089)"/>
    <use xlink:href="#t00001f" transform="matrix(0.5000000000000032 0.8660254037844397 -0.8660254037844397 0.5000000000000032 -305.0000000000001 124.70765814495905)"/>
    <use xlink:href="#t00028f" transform="matrix(0.5000000000000032 0.8660254037844398 -0.8660254037844398 0.5000000000000032 -3.979039320256561e-13 -5.684341886080801e-13)"/>
    <use xlink:href="#t00001f" transform="matrix(-0.49999999999999856 0.8660254037844454 -0.8660254037844454 -0.49999999999999856 304.99999999999955 -124.70765814496121)"/>
    <use xlink:href="#t00029f" transform="matrix(-0.4999999999999985 0.8660254037844456 -0.8660254037844456 -0.4999999999999985 540.5011718679361 118.12636937758919)"/>
  </g>
  <g id="t00032s">
    <use xlink:href="#t00029s" transform="matrix(0.5000000000000007 -0.8660254037844508 0.8660254037844508 0.5000000000000007 -666.3011148775156 -121.07037179568874)"/>
    <use xlink:href="#t00001s" transform="matrix(0.5000000000000105 0.866025403784449 -0.866025403784449 0.5000000000000105 -430.79994300957674 121.76365572686359)"/>
    <use xlink:href="#t00028s" transform="matrix(0.500000000000011 0.8660254037844491 -0.8660254037844491 0.500000000000011 -125.79994300957355 -2.94400241809808)"/>
    <use xlink:href="#t00001s" transform="matrix(-0.500000000000003 0.8660254037844567 -0.8660254037844567 -0.500000000000003 179.20005699042986 -127.65166056306089)"/>
    <use xlink:href="#t00029s" transform="matrix(1.0000000000000138 -7.466249840604178e-15 7.466249840604178e-15 1.0000000000000138 271.74990779428003 -453.01867178297834)"/>
    <use xlink:href="#t00029s" transform="matrix(-0.5000000000000033 0.8660254037844566 -0.8660254037844566 -0.5000000000000033 414.70122885836986 115.18236695949201)"/>
    <polygon points="-547.2999430095806,-329.43557964483193 511.700056990431,-454.14323778980065 628.2000569904351,-2.9440024181014905 295.7000569904342,323.5475748086367 -888.3002279617185,462.97524504409716" fill="none" stroke="rgb(0,0,0)" stroke-width="6.3999999999999995"/>
  </g>
  <g id="t00032f">
    <use xlink:href="#t00029f" transform="matrix(0.5000000000000007 -0.8660254037844508 0.8660254037844508 0.5000000000000007 -666.3011148775156 -121.07037179568874)"/>
    <use xlink:href="#t00001f" transform="matrix(0.5000000000000105 0.866025403784449 -0.866025403784449 0.5000000000000105 -430.79994300957674 121.76365572686359)"/>
    <use xlink:href="#t00028f" transform="matrix(0.500000000000011 0.8660254037844491 -0.8660254037844491 0.500000000000011 -125.79994300957355 -2.94400241809808)"/>
    <use xlink:href="#t00001f" transform="matrix(-0.500000000000003 0.8660254037844567 -0.8660254037844567 -0.500000000000003 179.20005699042986 -127.65166056306089)"/>
    <use xlink:href="#t00029f" transform="matrix(1.0000000000000138 -7.466249840604178e-15 7.466249840604178e-15 1.0000000000000138 271.74990779428003 -453.01867178297834)"/>
    <use xlink:href="#t00029f" transform="matrix(-0.5000000000000033 0.8660254037844566 -0.8660254037844566 -0.5000000000000033 414.70122885836986 115.18236695949201)"/>
  </g>
</defs>
<use xlink:href="#t00000f" transform="matrix(1.9743928161429845 0 0 -1.9743928161429845 694.8145699246306 272.1170738829452)"/>
</svg>
